<svg width="1280" height="360" viewBox="0 0 1280 360" fill="none" xmlns="http://www.w3.org/2000/svg" role="img" aria-label="UCAS OS Kernel banner">
  <defs>
    <linearGradient id="bg" x1="0" y1="0" x2="1280" y2="360" gradientUnits="userSpaceOnUse">
      <stop stop-color="#0B1220"/>
      <stop offset="0.55" stop-color="#0F2A3F"/>
      <stop offset="1" stop-color="#1A1030"/>
    </linearGradient>
    <linearGradient id="accent" x1="220" y1="70" x2="520" y2="260" gradientUnits="userSpaceOnUse">
      <stop stop-color="#7C3AED"/>
      <stop offset="0.55" stop-color="#22D3EE"/>
      <stop offset="1" stop-color="#34D399"/>
    </linearGradient>
    <filter id="softGlow" x="-50%" y="-50%" width="200%" height="200%">
      <feGaussianBlur stdDeviation="16" result="blur"/>
      <feColorMatrix in="blur" type="matrix"
        values="1 0 0 0 0
                0 1 0 0 0
                0 0 1 0 0
                0 0 0 0.35 0" result="glow"/>
      <feMerge>
        <feMergeNode in="glow"/>
        <feMergeNode in="SourceGraphic"/>
      </feMerge>
    </filter>
    <pattern id="grid" width="48" height="48" patternUnits="userSpaceOnUse">
      <path d="M48 0H0V48" fill="none" stroke="rgba(255,255,255,0.06)" stroke-width="1"/>
    </pattern>
  </defs>

  <rect width="1280" height="360" fill="url(#bg)"/>
  <rect width="1280" height="360" fill="url(#grid)"/>

  <!-- decorative blobs -->
  <circle cx="1040" cy="80" r="150" fill="rgba(124,58,237,0.22)"/>
  <circle cx="1160" cy="240" r="120" fill="rgba(34,211,238,0.18)"/>
  <circle cx="980" cy="280" r="180" fill="rgba(52,211,153,0.10)"/>

  <!-- stylized kernel chip -->
  <g filter="url(#softGlow)" transform="translate(120 82)">
    <rect x="0" y="0" width="196" height="196" rx="28" fill="rgba(255,255,255,0.06)" stroke="rgba(255,255,255,0.14)"/>
    <rect x="36" y="36" width="124" height="124" rx="18" fill="rgba(255,255,255,0.05)" stroke="rgba(255,255,255,0.16)"/>
    <path d="M60 98C60 79.7746 74.7746 65 93 65H103C121.225 65 136 79.7746 136 98V108C136 126.225 121.225 141 103 141H93C74.7746 141 60 126.225 60 108V98Z" fill="url(#accent)" opacity="0.95"/>
    <path d="M93 65V49M103 65V49M93 157V173M103 157V173M65 93H49M65 103H49M157 93H173M157 103H173" stroke="rgba(255,255,255,0.35)" stroke-width="6" stroke-linecap="round"/>
  </g>

  <!-- title -->
  <g transform="translate(380 92)">
    <text x="0" y="64" fill="white"
      font-family="ui-sans-serif, system-ui, -apple-system, Segoe UI, Roboto, Helvetica, Arial, 'Noto Sans', 'Liberation Sans', sans-serif"
      font-size="54" font-weight="800" letter-spacing="0.5">
      UCAS OS Kernel
    </text>
    <text x="0" y="108" fill="rgba(255,255,255,0.78)"
      font-family="ui-sans-serif, system-ui, -apple-system, Segoe UI, Roboto, Helvetica, Arial, 'Noto Sans', 'Liberation Sans', sans-serif"
      font-size="22" font-weight="500">
      RISC‑V 教学内核 · Sv39 虚拟内存 · E1000 驱动与网络实验
    </text>

    <!-- pills -->
    <g transform="translate(0 138)">
      <rect x="0" y="0" width="140" height="34" rx="17" fill="rgba(255,255,255,0.08)" stroke="rgba(255,255,255,0.14)"/>
      <text x="70" y="23" text-anchor="middle" fill="rgba(255,255,255,0.9)"
        font-family="ui-sans-serif, system-ui, -apple-system, Segoe UI, Roboto, Helvetica, Arial, 'Noto Sans', 'Liberation Sans', sans-serif"
        font-size="14" font-weight="600">Boot / ELF</text>

      <rect x="156" y="0" width="170" height="34" rx="17" fill="rgba(255,255,255,0.08)" stroke="rgba(255,255,255,0.14)"/>
      <text x="241" y="23" text-anchor="middle" fill="rgba(255,255,255,0.9)"
        font-family="ui-sans-serif, system-ui, -apple-system, Segoe UI, Roboto, Helvetica, Arial, 'Noto Sans', 'Liberation Sans', sans-serif"
        font-size="14" font-weight="600">Scheduler / Syscall</text>

      <rect x="342" y="0" width="150" height="34" rx="17" fill="rgba(255,255,255,0.08)" stroke="rgba(255,255,255,0.14)"/>
      <text x="417" y="23" text-anchor="middle" fill="rgba(255,255,255,0.9)"
        font-family="ui-sans-serif, system-ui, -apple-system, Segoe UI, Roboto, Helvetica, Arial, 'Noto Sans', 'Liberation Sans', sans-serif"
        font-size="14" font-weight="600">Sv39 / Swap</text>

      <rect x="508" y="0" width="160" height="34" rx="17" fill="rgba(255,255,255,0.08)" stroke="rgba(255,255,255,0.14)"/>
      <text x="588" y="23" text-anchor="middle" fill="rgba(255,255,255,0.9)"
        font-family="ui-sans-serif, system-ui, -apple-system, Segoe UI, Roboto, Helvetica, Arial, 'Noto Sans', 'Liberation Sans', sans-serif"
        font-size="14" font-weight="600">E1000 / RTP</text>
    </g>
  </g>

  <!-- subtle footer line -->
  <path d="M80 318H1200" stroke="rgba(255,255,255,0.10)" stroke-width="2" stroke-linecap="round"/>
</svg>
